{
    "asset" : {
        "generator" : "Khronos glTF Blender I/O v1.7.33",
        "version" : "2.0"
    },
    "scene" : 0,
    "scenes" : [
        {
            "name" : "Scene",
            "nodes" : [
                0
            ]
        }
    ],
    "nodes" : [
        {
            "mesh" : 0,
            "name" : "FrsSeehund_Kuh"
        }
    ],
    "materials" : [
        {
            "doubleSided" : true,
            "name" : "FrsSeehund_Kuh",
            "pbrMetallicRoughness" : {
                "baseColorTexture" : {
                    "index" : 0
                },
                "metallicFactor" : 0,
                "roughnessFactor" : 0.41999998688697815
            }
        }
    ],
    "meshes" : [
        {
            "name" : "FrsSeehund_Kuh",
            "primitives" : [
                {
                    "attributes" : {
                        "POSITION" : 0,
                        "NORMAL" : 1,
                        "TEXCOORD_0" : 2
                    },
                    "indices" : 3,
                    "material" : 0
                }
            ]
        }
    ],
    "textures" : [
        {
            "sampler" : 0,
            "source" : 0
        }
    ],
    "images" : [
        {
            "mimeType" : "image/png",
            "name" : "seehund",
            "uri" : "seehund.png"
        }
    ],
    "accessors" : [
        {
            "bufferView" : 0,
            "componentType" : 5126,
            "count" : 831,
            "max" : [
                0.28025147318840027,
                0.3725338876247406,
                0.8000000715255737
            ],
            "min" : [
                -0.28025147318840027,
                0,
                -0.8000000715255737
            ],
            "type" : "VEC3"
        },
        {
            "bufferView" : 1,
            "componentType" : 5126,
            "count" : 831,
            "type" : "VEC3"
        },
        {
            "bufferView" : 2,
            "componentType" : 5126,
            "count" : 831,
            "type" : "VEC2"
        },
        {
            "bufferView" : 3,
            "componentType" : 5123,
            "count" : 2475,
            "type" : "SCALAR"
        }
    ],
    "bufferViews" : [
        {
            "buffer" : 0,
            "byteLength" : 9972,
            "byteOffset" : 0
        },
        {
            "buffer" : 0,
            "byteLength" : 9972,
            "byteOffset" : 9972
        },
        {
            "buffer" : 0,
            "byteLength" : 6648,
            "byteOffset" : 19944
        },
        {
            "buffer" : 0,
            "byteLength" : 4950,
            "byteOffset" : 26592
        }
    ],
    "samplers" : [
        {
            "magFilter" : 9728,
            "minFilter" : 9984
        }
    ],
    "buffers" : [
        {
            "byteLength" : 31544,
            "uri" : "FrsSeehund_Kuh.bin"
        }
    ]
}
