{
 "asset": {
  "version": "2.0",
  "generator": "FriesenBruegge marken_bauen",
  "copyright": "devprops",
  "extensions": {
   "ASOBO_normal_map_convention": {
    "tangent_space_convention": "DirectX"
   }
  }
 },
 "extensionsUsed": [
  "ASOBO_normal_map_convention"
 ],
 "scene": 0,
 "scenes": [
  {
   "nodes": [
    0
   ],
   "name": "Scene"
  }
 ],
 "nodes": [
  {
   "mesh": 0,
   "name": "frs_saeule_weiss"
  }
 ],
 "meshes": [
  {
   "primitives": [
    {
     "attributes": {
      "POSITION": 0,
      "NORMAL": 1,
      "TEXCOORD_0": 2
     },
     "indices": 3,
     "material": 0,
     "mode": 4
    },
    {
     "attributes": {
      "POSITION": 4,
      "NORMAL": 5,
      "TEXCOORD_0": 6
     },
     "indices": 7,
     "material": 1,
     "mode": 4
    },
    {
     "attributes": {
      "POSITION": 8,
      "NORMAL": 9,
      "TEXCOORD_0": 10
     },
     "indices": 11,
     "material": 2,
     "mode": 4
    },
    {
     "attributes": {
      "POSITION": 12,
      "NORMAL": 13,
      "TEXCOORD_0": 14
     },
     "indices": 15,
     "material": 3,
     "mode": 4
    },
    {
     "attributes": {
      "POSITION": 16,
      "NORMAL": 17,
      "TEXCOORD_0": 18
     },
     "indices": 19,
     "material": 4,
     "mode": 4
    },
    {
     "attributes": {
      "POSITION": 20,
      "NORMAL": 21,
      "TEXCOORD_0": 22
     },
     "indices": 23,
     "material": 5,
     "mode": 4
    },
    {
     "attributes": {
      "POSITION": 24,
      "NORMAL": 25,
      "TEXCOORD_0": 26
     },
     "indices": 27,
     "material": 6,
     "mode": 4
    },
    {
     "attributes": {
      "POSITION": 28,
      "NORMAL": 29,
      "TEXCOORD_0": 30
     },
     "indices": 31,
     "material": 7,
     "mode": 4
    },
    {
     "attributes": {
      "POSITION": 32,
      "NORMAL": 33,
      "TEXCOORD_0": 34
     },
     "indices": 35,
     "material": 8,
     "mode": 4
    },
    {
     "attributes": {
      "POSITION": 36,
      "NORMAL": 37,
      "TEXCOORD_0": 38
     },
     "indices": 39,
     "material": 9,
     "mode": 4
    },
    {
     "attributes": {
      "POSITION": 40,
      "NORMAL": 41,
      "TEXCOORD_0": 42
     },
     "indices": 43,
     "material": 10,
     "mode": 4
    },
    {
     "attributes": {
      "POSITION": 44,
      "NORMAL": 45,
      "TEXCOORD_0": 46
     },
     "indices": 47,
     "material": 11,
     "mode": 4
    },
    {
     "attributes": {
      "POSITION": 48,
      "NORMAL": 49,
      "TEXCOORD_0": 50
     },
     "indices": 51,
     "material": 12,
     "mode": 4
    },
    {
     "attributes": {
      "POSITION": 52,
      "NORMAL": 53,
      "TEXCOORD_0": 54
     },
     "indices": 55,
     "material": 13,
     "mode": 4
    },
    {
     "attributes": {
      "POSITION": 56,
      "NORMAL": 57,
      "TEXCOORD_0": 58
     },
     "indices": 59,
     "material": 14,
     "mode": 4
    },
    {
     "attributes": {
      "POSITION": 60,
      "NORMAL": 61,
      "TEXCOORD_0": 62
     },
     "indices": 63,
     "material": 15,
     "mode": 4
    },
    {
     "attributes": {
      "POSITION": 64,
      "NORMAL": 65,
      "TEXCOORD_0": 66
     },
     "indices": 67,
     "material": 16,
     "mode": 4
    },
    {
     "attributes": {
      "POSITION": 68,
      "NORMAL": 69,
      "TEXCOORD_0": 70
     },
     "indices": 71,
     "material": 17,
     "mode": 4
    },
    {
     "attributes": {
      "POSITION": 72,
      "NORMAL": 73,
      "TEXCOORD_0": 74
     },
     "indices": 75,
     "material": 18,
     "mode": 4
    },
    {
     "attributes": {
      "POSITION": 76,
      "NORMAL": 77,
      "TEXCOORD_0": 78
     },
     "indices": 79,
     "material": 19,
     "mode": 4
    },
    {
     "attributes": {
      "POSITION": 80,
      "NORMAL": 81,
      "TEXCOORD_0": 82
     },
     "indices": 83,
     "material": 20,
     "mode": 4
    },
    {
     "attributes": {
      "POSITION": 84,
      "NORMAL": 85,
      "TEXCOORD_0": 86
     },
     "indices": 87,
     "material": 21,
     "mode": 4
    },
    {
     "attributes": {
      "POSITION": 88,
      "NORMAL": 89,
      "TEXCOORD_0": 90
     },
     "indices": 91,
     "material": 22,
     "mode": 4
    },
    {
     "attributes": {
      "POSITION": 92,
      "NORMAL": 93,
      "TEXCOORD_0": 94
     },
     "indices": 95,
     "material": 23,
     "mode": 4
    },
    {
     "attributes": {
      "POSITION": 96,
      "NORMAL": 97,
      "TEXCOORD_0": 98
     },
     "indices": 99,
     "material": 24,
     "mode": 4
    }
   ]
  }
 ],
 "materials": [
  {
   "name": "FrsSaeule_Weiss_00",
   "pbrMetallicRoughness": {
    "baseColorFactor": [
     1.0,
     0.871367,
     0.57758,
     0.5394
    ],
    "metallicFactor": 0.0,
    "roughnessFactor": 0.85
   },
   "emissiveFactor": [
    0.976048,
    0.850496,
    0.563746
   ],
   "doubleSided": true,
   "alphaMode": "BLEND"
  },
  {
   "name": "FrsSaeule_Weiss_01",
   "pbrMetallicRoughness": {
    "baseColorFactor": [
     1.0,
     0.871367,
     0.57758,
     0.5182
    ],
    "metallicFactor": 0.0,
    "roughnessFactor": 0.85
   },
   "emissiveFactor": [
    0.928439,
    0.809011,
    0.536248
   ],
   "doubleSided": true,
   "alphaMode": "BLEND"
  },
  {
   "name": "FrsSaeule_Weiss_02",
   "pbrMetallicRoughness": {
    "baseColorFactor": [
     1.0,
     0.871367,
     0.57758,
     0.497
    ],
    "metallicFactor": 0.0,
    "roughnessFactor": 0.85
   },
   "emissiveFactor": [
    0.881234,
    0.767878,
    0.508983
   ],
   "doubleSided": true,
   "alphaMode": "BLEND"
  },
  {
   "name": "FrsSaeule_Weiss_03",
   "pbrMetallicRoughness": {
    "baseColorFactor": [
     1.0,
     0.871367,
     0.57758,
     0.4758
    ],
    "metallicFactor": 0.0,
    "roughnessFactor": 0.85
   },
   "emissiveFactor": [
    0.834446,
    0.727109,
    0.481959
   ],
   "doubleSided": true,
   "alphaMode": "BLEND"
  },
  {
   "name": "FrsSaeule_Weiss_04",
   "pbrMetallicRoughness": {
    "baseColorFactor": [
     1.0,
     0.871367,
     0.57758,
     0.4546
    ],
    "metallicFactor": 0.0,
    "roughnessFactor": 0.85
   },
   "emissiveFactor": [
    0.788091,
    0.686716,
    0.455186
   ],
   "doubleSided": true,
   "alphaMode": "BLEND"
  },
  {
   "name": "FrsSaeule_Weiss_05",
   "pbrMetallicRoughness": {
    "baseColorFactor": [
     1.0,
     0.871367,
     0.57758,
     0.4334
    ],
    "metallicFactor": 0.0,
    "roughnessFactor": 0.85
   },
   "emissiveFactor": [
    0.742187,
    0.646717,
    0.428672
   ],
   "doubleSided": true,
   "alphaMode": "BLEND"
  },
  {
   "name": "FrsSaeule_Weiss_06",
   "pbrMetallicRoughness": {
    "baseColorFactor": [
     1.0,
     0.871367,
     0.57758,
     0.4122
    ],
    "metallicFactor": 0.0,
    "roughnessFactor": 0.85
   },
   "emissiveFactor": [
    0.696752,
    0.607127,
    0.40243
   ],
   "doubleSided": true,
   "alphaMode": "BLEND"
  },
  {
   "name": "FrsSaeule_Weiss_07",
   "pbrMetallicRoughness": {
    "baseColorFactor": [
     1.0,
     0.871367,
     0.57758,
     0.391
    ],
    "metallicFactor": 0.0,
    "roughnessFactor": 0.85
   },
   "emissiveFactor": [
    0.651805,
    0.567961,
    0.37647
   ],
   "doubleSided": true,
   "alphaMode": "BLEND"
  },
  {
   "name": "FrsSaeule_Weiss_08",
   "pbrMetallicRoughness": {
    "baseColorFactor": [
     1.0,
     0.871367,
     0.57758,
     0.3698
    ],
    "metallicFactor": 0.0,
    "roughnessFactor": 0.85
   },
   "emissiveFactor": [
    0.607369,
    0.529241,
    0.350804
   ],
   "doubleSided": true,
   "alphaMode": "BLEND"
  },
  {
   "name": "FrsSaeule_Weiss_09",
   "pbrMetallicRoughness": {
    "baseColorFactor": [
     1.0,
     0.871367,
     0.57758,
     0.3486
    ],
    "metallicFactor": 0.0,
    "roughnessFactor": 0.85
   },
   "emissiveFactor": [
    0.563469,
    0.490988,
    0.325448
   ],
   "doubleSided": true,
   "alphaMode": "BLEND"
  },
  {
   "name": "FrsSaeule_Weiss_10",
   "pbrMetallicRoughness": {
    "baseColorFactor": [
     1.0,
     0.871367,
     0.57758,
     0.3274
    ],
    "metallicFactor": 0.0,
    "roughnessFactor": 0.85
   },
   "emissiveFactor": [
    0.520132,
    0.453226,
    0.300418
   ],
   "doubleSided": true,
   "alphaMode": "BLEND"
  },
  {
   "name": "FrsSaeule_Weiss_11",
   "pbrMetallicRoughness": {
    "baseColorFactor": [
     1.0,
     0.871367,
     0.57758,
     0.3062
    ],
    "metallicFactor": 0.0,
    "roughnessFactor": 0.85
   },
   "emissiveFactor": [
    0.477389,
    0.415981,
    0.27573
   ],
   "doubleSided": true,
   "alphaMode": "BLEND"
  },
  {
   "name": "FrsSaeule_Weiss_12",
   "pbrMetallicRoughness": {
    "baseColorFactor": [
     1.0,
     0.871367,
     0.57758,
     0.285
    ],
    "metallicFactor": 0.0,
    "roughnessFactor": 0.85
   },
   "emissiveFactor": [
    0.435275,
    0.379284,
    0.251406
   ],
   "doubleSided": true,
   "alphaMode": "BLEND"
  },
  {
   "name": "FrsSaeule_Weiss_13",
   "pbrMetallicRoughness": {
    "baseColorFactor": [
     1.0,
     0.871367,
     0.57758,
     0.2638
    ],
    "metallicFactor": 0.0,
    "roughnessFactor": 0.85
   },
   "emissiveFactor": [
    0.393831,
    0.343171,
    0.227469
   ],
   "doubleSided": true,
   "alphaMode": "BLEND"
  },
  {
   "name": "FrsSaeule_Weiss_14",
   "pbrMetallicRoughness": {
    "baseColorFactor": [
     1.0,
     0.871367,
     0.57758,
     0.2426
    ],
    "metallicFactor": 0.0,
    "roughnessFactor": 0.85
   },
   "emissiveFactor": [
    0.353101,
    0.307681,
    0.203944
   ],
   "doubleSided": true,
   "alphaMode": "BLEND"
  },
  {
   "name": "FrsSaeule_Weiss_15",
   "pbrMetallicRoughness": {
    "baseColorFactor": [
     1.0,
     0.871367,
     0.57758,
     0.2214
    ],
    "metallicFactor": 0.0,
    "roughnessFactor": 0.85
   },
   "emissiveFactor": [
    0.313141,
    0.272861,
    0.180864
   ],
   "doubleSided": true,
   "alphaMode": "BLEND"
  },
  {
   "name": "FrsSaeule_Weiss_16",
   "pbrMetallicRoughness": {
    "baseColorFactor": [
     1.0,
     0.871367,
     0.57758,
     0.2002
    ],
    "metallicFactor": 0.0,
    "roughnessFactor": 0.85
   },
   "emissiveFactor": [
    0.274015,
    0.238768,
    0.158266
   ],
   "doubleSided": true,
   "alphaMode": "BLEND"
  },
  {
   "name": "FrsSaeule_Weiss_17",
   "pbrMetallicRoughness": {
    "baseColorFactor": [
     1.0,
     0.871367,
     0.57758,
     0.179
    ],
    "metallicFactor": 0.0,
    "roughnessFactor": 0.85
   },
   "emissiveFactor": [
    0.235801,
    0.205469,
    0.136194
   ],
   "doubleSided": true,
   "alphaMode": "BLEND"
  },
  {
   "name": "FrsSaeule_Weiss_18",
   "pbrMetallicRoughness": {
    "baseColorFactor": [
     1.0,
     0.871367,
     0.57758,
     0.1578
    ],
    "metallicFactor": 0.0,
    "roughnessFactor": 0.85
   },
   "emissiveFactor": [
    0.198595,
    0.173049,
    0.114705
   ],
   "doubleSided": true,
   "alphaMode": "BLEND"
  },
  {
   "name": "FrsSaeule_Weiss_19",
   "pbrMetallicRoughness": {
    "baseColorFactor": [
     1.0,
     0.871367,
     0.57758,
     0.1366
    ],
    "metallicFactor": 0.0,
    "roughnessFactor": 0.85
   },
   "emissiveFactor": [
    0.16252,
    0.141615,
    0.093868
   ],
   "doubleSided": true,
   "alphaMode": "BLEND"
  },
  {
   "name": "FrsSaeule_Weiss_20",
   "pbrMetallicRoughness": {
    "baseColorFactor": [
     1.0,
     0.871367,
     0.57758,
     0.1154
    ],
    "metallicFactor": 0.0,
    "roughnessFactor": 0.85
   },
   "emissiveFactor": [
    0.12774,
    0.111308,
    0.07378
   ],
   "doubleSided": true,
   "alphaMode": "BLEND"
  },
  {
   "name": "FrsSaeule_Weiss_21",
   "pbrMetallicRoughness": {
    "baseColorFactor": [
     1.0,
     0.871367,
     0.57758,
     0.0942
    ],
    "metallicFactor": 0.0,
    "roughnessFactor": 0.85
   },
   "emissiveFactor": [
    0.094483,
    0.082329,
    0.054571
   ],
   "doubleSided": true,
   "alphaMode": "BLEND"
  },
  {
   "name": "FrsSaeule_Weiss_22",
   "pbrMetallicRoughness": {
    "baseColorFactor": [
     1.0,
     0.871367,
     0.57758,
     0.073
    ],
    "metallicFactor": 0.0,
    "roughnessFactor": 0.85
   },
   "emissiveFactor": [
    0.063096,
    0.05498,
    0.036443
   ],
   "doubleSided": true,
   "alphaMode": "BLEND"
  },
  {
   "name": "FrsSaeule_Weiss_23",
   "pbrMetallicRoughness": {
    "baseColorFactor": [
     1.0,
     0.871367,
     0.57758,
     0.0518
    ],
    "metallicFactor": 0.0,
    "roughnessFactor": 0.85
   },
   "emissiveFactor": [
    0.034181,
    0.029784,
    0.019742
   ],
   "doubleSided": true,
   "alphaMode": "BLEND"
  },
  {
   "name": "FrsSaeule_Weiss_24",
   "pbrMetallicRoughness": {
    "baseColorFactor": [
     1.0,
     0.871367,
     0.57758,
     0.0306
    ],
    "metallicFactor": 0.0,
    "roughnessFactor": 0.85
   },
   "emissiveFactor": [
    0.009146,
    0.00797,
    0.005283
   ],
   "doubleSided": true,
   "alphaMode": "BLEND"
  }
 ],
 "accessors": [
  {
   "bufferView": 0,
   "componentType": 5126,
   "count": 32,
   "type": "VEC3",
   "min": [
    -2.04,
    0.0,
    -2.04
   ],
   "max": [
    2.04,
    4.0,
    2.04
   ]
  },
  {
   "bufferView": 1,
   "componentType": 5126,
   "count": 32,
   "type": "VEC3",
   "min": [
    -1.0,
    -1.0,
    -1.0
   ],
   "max": [
    1.0,
    1.0,
    1.0
   ]
  },
  {
   "bufferView": 2,
   "componentType": 5126,
   "count": 32,
   "type": "VEC2",
   "min": [
    0.0,
    0.0
   ],
   "max": [
    0.0,
    0.0
   ]
  },
  {
   "bufferView": 3,
   "componentType": 5123,
   "count": 48,
   "type": "SCALAR"
  },
  {
   "bufferView": 4,
   "componentType": 5126,
   "count": 32,
   "type": "VEC3",
   "min": [
    -2.08,
    4.0,
    -2.08
   ],
   "max": [
    2.08,
    8.0,
    2.08
   ]
  },
  {
   "bufferView": 5,
   "componentType": 5126,
   "count": 32,
   "type": "VEC3",
   "min": [
    -1.0,
    -1.0,
    -1.0
   ],
   "max": [
    1.0,
    1.0,
    1.0
   ]
  },
  {
   "bufferView": 6,
   "componentType": 5126,
   "count": 32,
   "type": "VEC2",
   "min": [
    0.0,
    0.0
   ],
   "max": [
    0.0,
    0.0
   ]
  },
  {
   "bufferView": 7,
   "componentType": 5123,
   "count": 48,
   "type": "SCALAR"
  },
  {
   "bufferView": 8,
   "componentType": 5126,
   "count": 32,
   "type": "VEC3",
   "min": [
    -2.12,
    8.0,
    -2.12
   ],
   "max": [
    2.12,
    12.0,
    2.12
   ]
  },
  {
   "bufferView": 9,
   "componentType": 5126,
   "count": 32,
   "type": "VEC3",
   "min": [
    -1.0,
    -1.0,
    -1.0
   ],
   "max": [
    1.0,
    1.0,
    1.0
   ]
  },
  {
   "bufferView": 10,
   "componentType": 5126,
   "count": 32,
   "type": "VEC2",
   "min": [
    0.0,
    0.0
   ],
   "max": [
    0.0,
    0.0
   ]
  },
  {
   "bufferView": 11,
   "componentType": 5123,
   "count": 48,
   "type": "SCALAR"
  },
  {
   "bufferView": 12,
   "componentType": 5126,
   "count": 32,
   "type": "VEC3",
   "min": [
    -2.16,
    12.0,
    -2.16
   ],
   "max": [
    2.16,
    16.0,
    2.16
   ]
  },
  {
   "bufferView": 13,
   "componentType": 5126,
   "count": 32,
   "type": "VEC3",
   "min": [
    -1.0,
    -1.0,
    -1.0
   ],
   "max": [
    1.0,
    1.0,
    1.0
   ]
  },
  {
   "bufferView": 14,
   "componentType": 5126,
   "count": 32,
   "type": "VEC2",
   "min": [
    0.0,
    0.0
   ],
   "max": [
    0.0,
    0.0
   ]
  },
  {
   "bufferView": 15,
   "componentType": 5123,
   "count": 48,
   "type": "SCALAR"
  },
  {
   "bufferView": 16,
   "componentType": 5126,
   "count": 32,
   "type": "VEC3",
   "min": [
    -2.2,
    16.0,
    -2.2
   ],
   "max": [
    2.2,
    20.0,
    2.2
   ]
  },
  {
   "bufferView": 17,
   "componentType": 5126,
   "count": 32,
   "type": "VEC3",
   "min": [
    -1.0,
    -1.0,
    -1.0
   ],
   "max": [
    1.0,
    1.0,
    1.0
   ]
  },
  {
   "bufferView": 18,
   "componentType": 5126,
   "count": 32,
   "type": "VEC2",
   "min": [
    0.0,
    0.0
   ],
   "max": [
    0.0,
    0.0
   ]
  },
  {
   "bufferView": 19,
   "componentType": 5123,
   "count": 48,
   "type": "SCALAR"
  },
  {
   "bufferView": 20,
   "componentType": 5126,
   "count": 32,
   "type": "VEC3",
   "min": [
    -2.24,
    20.0,
    -2.24
   ],
   "max": [
    2.24,
    24.0,
    2.24
   ]
  },
  {
   "bufferView": 21,
   "componentType": 5126,
   "count": 32,
   "type": "VEC3",
   "min": [
    -1.0,
    -1.0,
    -1.0
   ],
   "max": [
    1.0,
    1.0,
    1.0
   ]
  },
  {
   "bufferView": 22,
   "componentType": 5126,
   "count": 32,
   "type": "VEC2",
   "min": [
    0.0,
    0.0
   ],
   "max": [
    0.0,
    0.0
   ]
  },
  {
   "bufferView": 23,
   "componentType": 5123,
   "count": 48,
   "type": "SCALAR"
  },
  {
   "bufferView": 24,
   "componentType": 5126,
   "count": 32,
   "type": "VEC3",
   "min": [
    -2.28,
    24.0,
    -2.28
   ],
   "max": [
    2.28,
    28.0,
    2.28
   ]
  },
  {
   "bufferView": 25,
   "componentType": 5126,
   "count": 32,
   "type": "VEC3",
   "min": [
    -1.0,
    -1.0,
    -1.0
   ],
   "max": [
    1.0,
    1.0,
    1.0
   ]
  },
  {
   "bufferView": 26,
   "componentType": 5126,
   "count": 32,
   "type": "VEC2",
   "min": [
    0.0,
    0.0
   ],
   "max": [
    0.0,
    0.0
   ]
  },
  {
   "bufferView": 27,
   "componentType": 5123,
   "count": 48,
   "type": "SCALAR"
  },
  {
   "bufferView": 28,
   "componentType": 5126,
   "count": 32,
   "type": "VEC3",
   "min": [
    -2.32,
    28.0,
    -2.32
   ],
   "max": [
    2.32,
    32.0,
    2.32
   ]
  },
  {
   "bufferView": 29,
   "componentType": 5126,
   "count": 32,
   "type": "VEC3",
   "min": [
    -1.0,
    -1.0,
    -1.0
   ],
   "max": [
    1.0,
    1.0,
    1.0
   ]
  },
  {
   "bufferView": 30,
   "componentType": 5126,
   "count": 32,
   "type": "VEC2",
   "min": [
    0.0,
    0.0
   ],
   "max": [
    0.0,
    0.0
   ]
  },
  {
   "bufferView": 31,
   "componentType": 5123,
   "count": 48,
   "type": "SCALAR"
  },
  {
   "bufferView": 32,
   "componentType": 5126,
   "count": 32,
   "type": "VEC3",
   "min": [
    -2.36,
    32.0,
    -2.36
   ],
   "max": [
    2.36,
    36.0,
    2.36
   ]
  },
  {
   "bufferView": 33,
   "componentType": 5126,
   "count": 32,
   "type": "VEC3",
   "min": [
    -1.0,
    -1.0,
    -1.0
   ],
   "max": [
    1.0,
    1.0,
    1.0
   ]
  },
  {
   "bufferView": 34,
   "componentType": 5126,
   "count": 32,
   "type": "VEC2",
   "min": [
    0.0,
    0.0
   ],
   "max": [
    0.0,
    0.0
   ]
  },
  {
   "bufferView": 35,
   "componentType": 5123,
   "count": 48,
   "type": "SCALAR"
  },
  {
   "bufferView": 36,
   "componentType": 5126,
   "count": 32,
   "type": "VEC3",
   "min": [
    -2.4,
    36.0,
    -2.4
   ],
   "max": [
    2.4,
    40.0,
    2.4
   ]
  },
  {
   "bufferView": 37,
   "componentType": 5126,
   "count": 32,
   "type": "VEC3",
   "min": [
    -1.0,
    -1.0,
    -1.0
   ],
   "max": [
    1.0,
    1.0,
    1.0
   ]
  },
  {
   "bufferView": 38,
   "componentType": 5126,
   "count": 32,
   "type": "VEC2",
   "min": [
    0.0,
    0.0
   ],
   "max": [
    0.0,
    0.0
   ]
  },
  {
   "bufferView": 39,
   "componentType": 5123,
   "count": 48,
   "type": "SCALAR"
  },
  {
   "bufferView": 40,
   "componentType": 5126,
   "count": 32,
   "type": "VEC3",
   "min": [
    -2.44,
    40.0,
    -2.44
   ],
   "max": [
    2.44,
    44.0,
    2.44
   ]
  },
  {
   "bufferView": 41,
   "componentType": 5126,
   "count": 32,
   "type": "VEC3",
   "min": [
    -1.0,
    -1.0,
    -1.0
   ],
   "max": [
    1.0,
    1.0,
    1.0
   ]
  },
  {
   "bufferView": 42,
   "componentType": 5126,
   "count": 32,
   "type": "VEC2",
   "min": [
    0.0,
    0.0
   ],
   "max": [
    0.0,
    0.0
   ]
  },
  {
   "bufferView": 43,
   "componentType": 5123,
   "count": 48,
   "type": "SCALAR"
  },
  {
   "bufferView": 44,
   "componentType": 5126,
   "count": 32,
   "type": "VEC3",
   "min": [
    -2.48,
    44.0,
    -2.48
   ],
   "max": [
    2.48,
    48.0,
    2.48
   ]
  },
  {
   "bufferView": 45,
   "componentType": 5126,
   "count": 32,
   "type": "VEC3",
   "min": [
    -1.0,
    -1.0,
    -1.0
   ],
   "max": [
    1.0,
    1.0,
    1.0
   ]
  },
  {
   "bufferView": 46,
   "componentType": 5126,
   "count": 32,
   "type": "VEC2",
   "min": [
    0.0,
    0.0
   ],
   "max": [
    0.0,
    0.0
   ]
  },
  {
   "bufferView": 47,
   "componentType": 5123,
   "count": 48,
   "type": "SCALAR"
  },
  {
   "bufferView": 48,
   "componentType": 5126,
   "count": 32,
   "type": "VEC3",
   "min": [
    -2.52,
    48.0,
    -2.52
   ],
   "max": [
    2.52,
    52.0,
    2.52
   ]
  },
  {
   "bufferView": 49,
   "componentType": 5126,
   "count": 32,
   "type": "VEC3",
   "min": [
    -1.0,
    -1.0,
    -1.0
   ],
   "max": [
    1.0,
    1.0,
    1.0
   ]
  },
  {
   "bufferView": 50,
   "componentType": 5126,
   "count": 32,
   "type": "VEC2",
   "min": [
    0.0,
    0.0
   ],
   "max": [
    0.0,
    0.0
   ]
  },
  {
   "bufferView": 51,
   "componentType": 5123,
   "count": 48,
   "type": "SCALAR"
  },
  {
   "bufferView": 52,
   "componentType": 5126,
   "count": 32,
   "type": "VEC3",
   "min": [
    -2.56,
    52.0,
    -2.56
   ],
   "max": [
    2.56,
    56.0,
    2.56
   ]
  },
  {
   "bufferView": 53,
   "componentType": 5126,
   "count": 32,
   "type": "VEC3",
   "min": [
    -1.0,
    -1.0,
    -1.0
   ],
   "max": [
    1.0,
    1.0,
    1.0
   ]
  },
  {
   "bufferView": 54,
   "componentType": 5126,
   "count": 32,
   "type": "VEC2",
   "min": [
    0.0,
    0.0
   ],
   "max": [
    0.0,
    0.0
   ]
  },
  {
   "bufferView": 55,
   "componentType": 5123,
   "count": 48,
   "type": "SCALAR"
  },
  {
   "bufferView": 56,
   "componentType": 5126,
   "count": 32,
   "type": "VEC3",
   "min": [
    -2.6,
    56.0,
    -2.6
   ],
   "max": [
    2.6,
    60.0,
    2.6
   ]
  },
  {
   "bufferView": 57,
   "componentType": 5126,
   "count": 32,
   "type": "VEC3",
   "min": [
    -1.0,
    -1.0,
    -1.0
   ],
   "max": [
    1.0,
    1.0,
    1.0
   ]
  },
  {
   "bufferView": 58,
   "componentType": 5126,
   "count": 32,
   "type": "VEC2",
   "min": [
    0.0,
    0.0
   ],
   "max": [
    0.0,
    0.0
   ]
  },
  {
   "bufferView": 59,
   "componentType": 5123,
   "count": 48,
   "type": "SCALAR"
  },
  {
   "bufferView": 60,
   "componentType": 5126,
   "count": 32,
   "type": "VEC3",
   "min": [
    -2.64,
    60.0,
    -2.64
   ],
   "max": [
    2.64,
    64.0,
    2.64
   ]
  },
  {
   "bufferView": 61,
   "componentType": 5126,
   "count": 32,
   "type": "VEC3",
   "min": [
    -1.0,
    -1.0,
    -1.0
   ],
   "max": [
    1.0,
    1.0,
    1.0
   ]
  },
  {
   "bufferView": 62,
   "componentType": 5126,
   "count": 32,
   "type": "VEC2",
   "min": [
    0.0,
    0.0
   ],
   "max": [
    0.0,
    0.0
   ]
  },
  {
   "bufferView": 63,
   "componentType": 5123,
   "count": 48,
   "type": "SCALAR"
  },
  {
   "bufferView": 64,
   "componentType": 5126,
   "count": 32,
   "type": "VEC3",
   "min": [
    -2.68,
    64.0,
    -2.68
   ],
   "max": [
    2.68,
    68.0,
    2.68
   ]
  },
  {
   "bufferView": 65,
   "componentType": 5126,
   "count": 32,
   "type": "VEC3",
   "min": [
    -1.0,
    -1.0,
    -1.0
   ],
   "max": [
    1.0,
    1.0,
    1.0
   ]
  },
  {
   "bufferView": 66,
   "componentType": 5126,
   "count": 32,
   "type": "VEC2",
   "min": [
    0.0,
    0.0
   ],
   "max": [
    0.0,
    0.0
   ]
  },
  {
   "bufferView": 67,
   "componentType": 5123,
   "count": 48,
   "type": "SCALAR"
  },
  {
   "bufferView": 68,
   "componentType": 5126,
   "count": 32,
   "type": "VEC3",
   "min": [
    -2.72,
    68.0,
    -2.72
   ],
   "max": [
    2.72,
    72.0,
    2.72
   ]
  },
  {
   "bufferView": 69,
   "componentType": 5126,
   "count": 32,
   "type": "VEC3",
   "min": [
    -1.0,
    -1.0,
    -1.0
   ],
   "max": [
    1.0,
    1.0,
    1.0
   ]
  },
  {
   "bufferView": 70,
   "componentType": 5126,
   "count": 32,
   "type": "VEC2",
   "min": [
    0.0,
    0.0
   ],
   "max": [
    0.0,
    0.0
   ]
  },
  {
   "bufferView": 71,
   "componentType": 5123,
   "count": 48,
   "type": "SCALAR"
  },
  {
   "bufferView": 72,
   "componentType": 5126,
   "count": 32,
   "type": "VEC3",
   "min": [
    -2.76,
    72.0,
    -2.76
   ],
   "max": [
    2.76,
    76.0,
    2.76
   ]
  },
  {
   "bufferView": 73,
   "componentType": 5126,
   "count": 32,
   "type": "VEC3",
   "min": [
    -1.0,
    -1.0,
    -1.0
   ],
   "max": [
    1.0,
    1.0,
    1.0
   ]
  },
  {
   "bufferView": 74,
   "componentType": 5126,
   "count": 32,
   "type": "VEC2",
   "min": [
    0.0,
    0.0
   ],
   "max": [
    0.0,
    0.0
   ]
  },
  {
   "bufferView": 75,
   "componentType": 5123,
   "count": 48,
   "type": "SCALAR"
  },
  {
   "bufferView": 76,
   "componentType": 5126,
   "count": 32,
   "type": "VEC3",
   "min": [
    -2.8,
    76.0,
    -2.8
   ],
   "max": [
    2.8,
    80.0,
    2.8
   ]
  },
  {
   "bufferView": 77,
   "componentType": 5126,
   "count": 32,
   "type": "VEC3",
   "min": [
    -1.0,
    -1.0,
    -1.0
   ],
   "max": [
    1.0,
    1.0,
    1.0
   ]
  },
  {
   "bufferView": 78,
   "componentType": 5126,
   "count": 32,
   "type": "VEC2",
   "min": [
    0.0,
    0.0
   ],
   "max": [
    0.0,
    0.0
   ]
  },
  {
   "bufferView": 79,
   "componentType": 5123,
   "count": 48,
   "type": "SCALAR"
  },
  {
   "bufferView": 80,
   "componentType": 5126,
   "count": 32,
   "type": "VEC3",
   "min": [
    -2.84,
    80.0,
    -2.84
   ],
   "max": [
    2.84,
    84.0,
    2.84
   ]
  },
  {
   "bufferView": 81,
   "componentType": 5126,
   "count": 32,
   "type": "VEC3",
   "min": [
    -1.0,
    -1.0,
    -1.0
   ],
   "max": [
    1.0,
    1.0,
    1.0
   ]
  },
  {
   "bufferView": 82,
   "componentType": 5126,
   "count": 32,
   "type": "VEC2",
   "min": [
    0.0,
    0.0
   ],
   "max": [
    0.0,
    0.0
   ]
  },
  {
   "bufferView": 83,
   "componentType": 5123,
   "count": 48,
   "type": "SCALAR"
  },
  {
   "bufferView": 84,
   "componentType": 5126,
   "count": 32,
   "type": "VEC3",
   "min": [
    -2.88,
    84.0,
    -2.88
   ],
   "max": [
    2.88,
    88.0,
    2.88
   ]
  },
  {
   "bufferView": 85,
   "componentType": 5126,
   "count": 32,
   "type": "VEC3",
   "min": [
    -1.0,
    -1.0,
    -1.0
   ],
   "max": [
    1.0,
    1.0,
    1.0
   ]
  },
  {
   "bufferView": 86,
   "componentType": 5126,
   "count": 32,
   "type": "VEC2",
   "min": [
    0.0,
    0.0
   ],
   "max": [
    0.0,
    0.0
   ]
  },
  {
   "bufferView": 87,
   "componentType": 5123,
   "count": 48,
   "type": "SCALAR"
  },
  {
   "bufferView": 88,
   "componentType": 5126,
   "count": 32,
   "type": "VEC3",
   "min": [
    -2.92,
    88.0,
    -2.92
   ],
   "max": [
    2.92,
    92.0,
    2.92
   ]
  },
  {
   "bufferView": 89,
   "componentType": 5126,
   "count": 32,
   "type": "VEC3",
   "min": [
    -1.0,
    -1.0,
    -1.0
   ],
   "max": [
    1.0,
    1.0,
    1.0
   ]
  },
  {
   "bufferView": 90,
   "componentType": 5126,
   "count": 32,
   "type": "VEC2",
   "min": [
    0.0,
    0.0
   ],
   "max": [
    0.0,
    0.0
   ]
  },
  {
   "bufferView": 91,
   "componentType": 5123,
   "count": 48,
   "type": "SCALAR"
  },
  {
   "bufferView": 92,
   "componentType": 5126,
   "count": 32,
   "type": "VEC3",
   "min": [
    -2.96,
    92.0,
    -2.96
   ],
   "max": [
    2.96,
    96.0,
    2.96
   ]
  },
  {
   "bufferView": 93,
   "componentType": 5126,
   "count": 32,
   "type": "VEC3",
   "min": [
    -1.0,
    -1.0,
    -1.0
   ],
   "max": [
    1.0,
    1.0,
    1.0
   ]
  },
  {
   "bufferView": 94,
   "componentType": 5126,
   "count": 32,
   "type": "VEC2",
   "min": [
    0.0,
    0.0
   ],
   "max": [
    0.0,
    0.0
   ]
  },
  {
   "bufferView": 95,
   "componentType": 5123,
   "count": 48,
   "type": "SCALAR"
  },
  {
   "bufferView": 96,
   "componentType": 5126,
   "count": 32,
   "type": "VEC3",
   "min": [
    -3.0,
    96.0,
    -3.0
   ],
   "max": [
    3.0,
    100.0,
    3.0
   ]
  },
  {
   "bufferView": 97,
   "componentType": 5126,
   "count": 32,
   "type": "VEC3",
   "min": [
    -1.0,
    -1.0,
    -1.0
   ],
   "max": [
    1.0,
    1.0,
    1.0
   ]
  },
  {
   "bufferView": 98,
   "componentType": 5126,
   "count": 32,
   "type": "VEC2",
   "min": [
    0.0,
    0.0
   ],
   "max": [
    0.0,
    0.0
   ]
  },
  {
   "bufferView": 99,
   "componentType": 5123,
   "count": 48,
   "type": "SCALAR"
  }
 ],
 "bufferViews": [
  {
   "buffer": 0,
   "byteOffset": 0,
   "byteLength": 384,
   "target": 34962
  },
  {
   "buffer": 0,
   "byteOffset": 384,
   "byteLength": 384,
   "target": 34962
  },
  {
   "buffer": 0,
   "byteOffset": 768,
   "byteLength": 256,
   "target": 34962
  },
  {
   "buffer": 0,
   "byteOffset": 1024,
   "byteLength": 96,
   "target": 34963
  },
  {
   "buffer": 0,
   "byteOffset": 1120,
   "byteLength": 384,
   "target": 34962
  },
  {
   "buffer": 0,
   "byteOffset": 1504,
   "byteLength": 384,
   "target": 34962
  },
  {
   "buffer": 0,
   "byteOffset": 1888,
   "byteLength": 256,
   "target": 34962
  },
  {
   "buffer": 0,
   "byteOffset": 2144,
   "byteLength": 96,
   "target": 34963
  },
  {
   "buffer": 0,
   "byteOffset": 2240,
   "byteLength": 384,
   "target": 34962
  },
  {
   "buffer": 0,
   "byteOffset": 2624,
   "byteLength": 384,
   "target": 34962
  },
  {
   "buffer": 0,
   "byteOffset": 3008,
   "byteLength": 256,
   "target": 34962
  },
  {
   "buffer": 0,
   "byteOffset": 3264,
   "byteLength": 96,
   "target": 34963
  },
  {
   "buffer": 0,
   "byteOffset": 3360,
   "byteLength": 384,
   "target": 34962
  },
  {
   "buffer": 0,
   "byteOffset": 3744,
   "byteLength": 384,
   "target": 34962
  },
  {
   "buffer": 0,
   "byteOffset": 4128,
   "byteLength": 256,
   "target": 34962
  },
  {
   "buffer": 0,
   "byteOffset": 4384,
   "byteLength": 96,
   "target": 34963
  },
  {
   "buffer": 0,
   "byteOffset": 4480,
   "byteLength": 384,
   "target": 34962
  },
  {
   "buffer": 0,
   "byteOffset": 4864,
   "byteLength": 384,
   "target": 34962
  },
  {
   "buffer": 0,
   "byteOffset": 5248,
   "byteLength": 256,
   "target": 34962
  },
  {
   "buffer": 0,
   "byteOffset": 5504,
   "byteLength": 96,
   "target": 34963
  },
  {
   "buffer": 0,
   "byteOffset": 5600,
   "byteLength": 384,
   "target": 34962
  },
  {
   "buffer": 0,
   "byteOffset": 5984,
   "byteLength": 384,
   "target": 34962
  },
  {
   "buffer": 0,
   "byteOffset": 6368,
   "byteLength": 256,
   "target": 34962
  },
  {
   "buffer": 0,
   "byteOffset": 6624,
   "byteLength": 96,
   "target": 34963
  },
  {
   "buffer": 0,
   "byteOffset": 6720,
   "byteLength": 384,
   "target": 34962
  },
  {
   "buffer": 0,
   "byteOffset": 7104,
   "byteLength": 384,
   "target": 34962
  },
  {
   "buffer": 0,
   "byteOffset": 7488,
   "byteLength": 256,
   "target": 34962
  },
  {
   "buffer": 0,
   "byteOffset": 7744,
   "byteLength": 96,
   "target": 34963
  },
  {
   "buffer": 0,
   "byteOffset": 7840,
   "byteLength": 384,
   "target": 34962
  },
  {
   "buffer": 0,
   "byteOffset": 8224,
   "byteLength": 384,
   "target": 34962
  },
  {
   "buffer": 0,
   "byteOffset": 8608,
   "byteLength": 256,
   "target": 34962
  },
  {
   "buffer": 0,
   "byteOffset": 8864,
   "byteLength": 96,
   "target": 34963
  },
  {
   "buffer": 0,
   "byteOffset": 8960,
   "byteLength": 384,
   "target": 34962
  },
  {
   "buffer": 0,
   "byteOffset": 9344,
   "byteLength": 384,
   "target": 34962
  },
  {
   "buffer": 0,
   "byteOffset": 9728,
   "byteLength": 256,
   "target": 34962
  },
  {
   "buffer": 0,
   "byteOffset": 9984,
   "byteLength": 96,
   "target": 34963
  },
  {
   "buffer": 0,
   "byteOffset": 10080,
   "byteLength": 384,
   "target": 34962
  },
  {
   "buffer": 0,
   "byteOffset": 10464,
   "byteLength": 384,
   "target": 34962
  },
  {
   "buffer": 0,
   "byteOffset": 10848,
   "byteLength": 256,
   "target": 34962
  },
  {
   "buffer": 0,
   "byteOffset": 11104,
   "byteLength": 96,
   "target": 34963
  },
  {
   "buffer": 0,
   "byteOffset": 11200,
   "byteLength": 384,
   "target": 34962
  },
  {
   "buffer": 0,
   "byteOffset": 11584,
   "byteLength": 384,
   "target": 34962
  },
  {
   "buffer": 0,
   "byteOffset": 11968,
   "byteLength": 256,
   "target": 34962
  },
  {
   "buffer": 0,
   "byteOffset": 12224,
   "byteLength": 96,
   "target": 34963
  },
  {
   "buffer": 0,
   "byteOffset": 12320,
   "byteLength": 384,
   "target": 34962
  },
  {
   "buffer": 0,
   "byteOffset": 12704,
   "byteLength": 384,
   "target": 34962
  },
  {
   "buffer": 0,
   "byteOffset": 13088,
   "byteLength": 256,
   "target": 34962
  },
  {
   "buffer": 0,
   "byteOffset": 13344,
   "byteLength": 96,
   "target": 34963
  },
  {
   "buffer": 0,
   "byteOffset": 13440,
   "byteLength": 384,
   "target": 34962
  },
  {
   "buffer": 0,
   "byteOffset": 13824,
   "byteLength": 384,
   "target": 34962
  },
  {
   "buffer": 0,
   "byteOffset": 14208,
   "byteLength": 256,
   "target": 34962
  },
  {
   "buffer": 0,
   "byteOffset": 14464,
   "byteLength": 96,
   "target": 34963
  },
  {
   "buffer": 0,
   "byteOffset": 14560,
   "byteLength": 384,
   "target": 34962
  },
  {
   "buffer": 0,
   "byteOffset": 14944,
   "byteLength": 384,
   "target": 34962
  },
  {
   "buffer": 0,
   "byteOffset": 15328,
   "byteLength": 256,
   "target": 34962
  },
  {
   "buffer": 0,
   "byteOffset": 15584,
   "byteLength": 96,
   "target": 34963
  },
  {
   "buffer": 0,
   "byteOffset": 15680,
   "byteLength": 384,
   "target": 34962
  },
  {
   "buffer": 0,
   "byteOffset": 16064,
   "byteLength": 384,
   "target": 34962
  },
  {
   "buffer": 0,
   "byteOffset": 16448,
   "byteLength": 256,
   "target": 34962
  },
  {
   "buffer": 0,
   "byteOffset": 16704,
   "byteLength": 96,
   "target": 34963
  },
  {
   "buffer": 0,
   "byteOffset": 16800,
   "byteLength": 384,
   "target": 34962
  },
  {
   "buffer": 0,
   "byteOffset": 17184,
   "byteLength": 384,
   "target": 34962
  },
  {
   "buffer": 0,
   "byteOffset": 17568,
   "byteLength": 256,
   "target": 34962
  },
  {
   "buffer": 0,
   "byteOffset": 17824,
   "byteLength": 96,
   "target": 34963
  },
  {
   "buffer": 0,
   "byteOffset": 17920,
   "byteLength": 384,
   "target": 34962
  },
  {
   "buffer": 0,
   "byteOffset": 18304,
   "byteLength": 384,
   "target": 34962
  },
  {
   "buffer": 0,
   "byteOffset": 18688,
   "byteLength": 256,
   "target": 34962
  },
  {
   "buffer": 0,
   "byteOffset": 18944,
   "byteLength": 96,
   "target": 34963
  },
  {
   "buffer": 0,
   "byteOffset": 19040,
   "byteLength": 384,
   "target": 34962
  },
  {
   "buffer": 0,
   "byteOffset": 19424,
   "byteLength": 384,
   "target": 34962
  },
  {
   "buffer": 0,
   "byteOffset": 19808,
   "byteLength": 256,
   "target": 34962
  },
  {
   "buffer": 0,
   "byteOffset": 20064,
   "byteLength": 96,
   "target": 34963
  },
  {
   "buffer": 0,
   "byteOffset": 20160,
   "byteLength": 384,
   "target": 34962
  },
  {
   "buffer": 0,
   "byteOffset": 20544,
   "byteLength": 384,
   "target": 34962
  },
  {
   "buffer": 0,
   "byteOffset": 20928,
   "byteLength": 256,
   "target": 34962
  },
  {
   "buffer": 0,
   "byteOffset": 21184,
   "byteLength": 96,
   "target": 34963
  },
  {
   "buffer": 0,
   "byteOffset": 21280,
   "byteLength": 384,
   "target": 34962
  },
  {
   "buffer": 0,
   "byteOffset": 21664,
   "byteLength": 384,
   "target": 34962
  },
  {
   "buffer": 0,
   "byteOffset": 22048,
   "byteLength": 256,
   "target": 34962
  },
  {
   "buffer": 0,
   "byteOffset": 22304,
   "byteLength": 96,
   "target": 34963
  },
  {
   "buffer": 0,
   "byteOffset": 22400,
   "byteLength": 384,
   "target": 34962
  },
  {
   "buffer": 0,
   "byteOffset": 22784,
   "byteLength": 384,
   "target": 34962
  },
  {
   "buffer": 0,
   "byteOffset": 23168,
   "byteLength": 256,
   "target": 34962
  },
  {
   "buffer": 0,
   "byteOffset": 23424,
   "byteLength": 96,
   "target": 34963
  },
  {
   "buffer": 0,
   "byteOffset": 23520,
   "byteLength": 384,
   "target": 34962
  },
  {
   "buffer": 0,
   "byteOffset": 23904,
   "byteLength": 384,
   "target": 34962
  },
  {
   "buffer": 0,
   "byteOffset": 24288,
   "byteLength": 256,
   "target": 34962
  },
  {
   "buffer": 0,
   "byteOffset": 24544,
   "byteLength": 96,
   "target": 34963
  },
  {
   "buffer": 0,
   "byteOffset": 24640,
   "byteLength": 384,
   "target": 34962
  },
  {
   "buffer": 0,
   "byteOffset": 25024,
   "byteLength": 384,
   "target": 34962
  },
  {
   "buffer": 0,
   "byteOffset": 25408,
   "byteLength": 256,
   "target": 34962
  },
  {
   "buffer": 0,
   "byteOffset": 25664,
   "byteLength": 96,
   "target": 34963
  },
  {
   "buffer": 0,
   "byteOffset": 25760,
   "byteLength": 384,
   "target": 34962
  },
  {
   "buffer": 0,
   "byteOffset": 26144,
   "byteLength": 384,
   "target": 34962
  },
  {
   "buffer": 0,
   "byteOffset": 26528,
   "byteLength": 256,
   "target": 34962
  },
  {
   "buffer": 0,
   "byteOffset": 26784,
   "byteLength": 96,
   "target": 34963
  },
  {
   "buffer": 0,
   "byteOffset": 26880,
   "byteLength": 384,
   "target": 34962
  },
  {
   "buffer": 0,
   "byteOffset": 27264,
   "byteLength": 384,
   "target": 34962
  },
  {
   "buffer": 0,
   "byteOffset": 27648,
   "byteLength": 256,
   "target": 34962
  },
  {
   "buffer": 0,
   "byteOffset": 27904,
   "byteLength": 96,
   "target": 34963
  }
 ],
 "buffers": [
  {
   "byteLength": 28000,
   "uri": "FrsSaeule_Weiss.bin"
  }
 ]
}