{
 "asset": {
  "version": "2.0",
  "generator": "FriesenBruegge marken_bauen",
  "copyright": "devprops",
  "extensions": {
   "ASOBO_normal_map_convention": {
    "tangent_space_convention": "DirectX"
   }
  }
 },
 "extensionsUsed": [
  "ASOBO_normal_map_convention",
  "ASOBO_material_emissive"
 ],
 "scene": 0,
 "scenes": [
  {
   "nodes": [
    0
   ],
   "name": "Scene"
  }
 ],
 "nodes": [
  {
   "mesh": 0,
   "name": "frs_wuerfel_signalrot"
  }
 ],
 "meshes": [
  {
   "primitives": [
    {
     "attributes": {
      "POSITION": 0,
      "NORMAL": 1,
      "TEXCOORD_0": 2
     },
     "indices": 3,
     "material": 0,
     "mode": 4
    }
   ]
  }
 ],
 "materials": [
  {
   "name": "FrsWuerfel_Signalrot",
   "pbrMetallicRoughness": {
    "baseColorFactor": [
     0.768151,
     0.001821,
     0.006512,
     1.0
    ],
    "metallicFactor": 0.0,
    "roughnessFactor": 0.85
   },
   "emissiveFactor": [
    0.268853,
    0.000637,
    0.002279
   ],
   "doubleSided": false,
   "extensions": {
    "ASOBO_material_emissive": {
     "emissiveDayMultiplier": 1.0,
     "emissiveNightMultiplier": 80.0
    }
   }
  }
 ],
 "accessors": [
  {
   "bufferView": 0,
   "componentType": 5126,
   "count": 24,
   "type": "VEC3",
   "min": [
    -1.5,
    0.0,
    -1.5
   ],
   "max": [
    1.5,
    3.0,
    1.5
   ]
  },
  {
   "bufferView": 1,
   "componentType": 5126,
   "count": 24,
   "type": "VEC3",
   "min": [
    -1.0,
    -1.0,
    -1.0
   ],
   "max": [
    1.0,
    1.0,
    1.0
   ]
  },
  {
   "bufferView": 2,
   "componentType": 5126,
   "count": 24,
   "type": "VEC2",
   "min": [
    0.0,
    0.0
   ],
   "max": [
    0.0,
    0.0
   ]
  },
  {
   "bufferView": 3,
   "componentType": 5123,
   "count": 36,
   "type": "SCALAR"
  }
 ],
 "bufferViews": [
  {
   "buffer": 0,
   "byteOffset": 0,
   "byteLength": 288,
   "target": 34962
  },
  {
   "buffer": 0,
   "byteOffset": 288,
   "byteLength": 288,
   "target": 34962
  },
  {
   "buffer": 0,
   "byteOffset": 576,
   "byteLength": 192,
   "target": 34962
  },
  {
   "buffer": 0,
   "byteOffset": 768,
   "byteLength": 72,
   "target": 34963
  }
 ],
 "buffers": [
  {
   "byteLength": 840,
   "uri": "FrsWuerfel_Signalrot.bin"
  }
 ]
}