{
 "asset": {
  "version": "2.0",
  "generator": "FriesenBruegge marken_bauen",
  "copyright": "devprops",
  "extensions": {
   "ASOBO_normal_map_convention": {
    "tangent_space_convention": "DirectX"
   }
  }
 },
 "extensionsUsed": [
  "ASOBO_normal_map_convention",
  "ASOBO_material_emissive",
  "ASOBO_macro_light"
 ],
 "scene": 0,
 "scenes": [
  {
   "nodes": [
    0
   ],
   "name": "Scene"
  }
 ],
 "nodes": [
  {
   "mesh": 0,
   "name": "Light",
   "translation": [
    0.0,
    0.2,
    0.0
   ],
   "children": [
    1
   ]
  },
  {
   "name": "Point",
   "translation": [
    0.0,
    0.1,
    0.0
   ],
   "extensions": {
    "ASOBO_macro_light": {
     "color": [
      1.0,
      0.84,
      0.6
     ],
     "intensity": 1600.0,
     "cone_angle": 360,
     "has_simmetry": false,
     "flash_frequency": 0.0,
     "flash_duration": 0.0,
     "flash_phase": 0.0,
     "rotation_speed": 0.0,
     "day_night_cycle": true
    }
   }
  }
 ],
 "meshes": [
  {
   "primitives": [
    {
     "attributes": {
      "POSITION": 0,
      "NORMAL": 1,
      "TEXCOORD_0": 2
     },
     "indices": 3,
     "material": 0,
     "mode": 4
    }
   ]
  }
 ],
 "materials": [
  {
   "name": "FrsLicht_Warm_Kern",
   "pbrMetallicRoughness": {
    "baseColorFactor": [
     1.0,
     0.84,
     0.6,
     1.0
    ],
    "metallicFactor": 0.0,
    "roughnessFactor": 0.85
   },
   "emissiveFactor": [
    1.0,
    0.84,
    0.6
   ],
   "doubleSided": false,
   "extensions": {
    "ASOBO_material_emissive": {
     "emissiveDayMultiplier": 1.0,
     "emissiveNightMultiplier": 400.0
    }
   }
  }
 ],
 "accessors": [
  {
   "bufferView": 0,
   "componentType": 5126,
   "count": 24,
   "type": "VEC3",
   "min": [
    -0.1,
    0.0,
    -0.1
   ],
   "max": [
    0.1,
    0.2,
    0.1
   ]
  },
  {
   "bufferView": 1,
   "componentType": 5126,
   "count": 24,
   "type": "VEC3",
   "min": [
    -1.0,
    -1.0,
    -1.0
   ],
   "max": [
    1.0,
    1.0,
    1.0
   ]
  },
  {
   "bufferView": 2,
   "componentType": 5126,
   "count": 24,
   "type": "VEC2",
   "min": [
    0.0,
    0.0
   ],
   "max": [
    0.0,
    0.0
   ]
  },
  {
   "bufferView": 3,
   "componentType": 5123,
   "count": 36,
   "type": "SCALAR"
  }
 ],
 "bufferViews": [
  {
   "buffer": 0,
   "byteOffset": 0,
   "byteLength": 288,
   "target": 34962
  },
  {
   "buffer": 0,
   "byteOffset": 288,
   "byteLength": 288,
   "target": 34962
  },
  {
   "buffer": 0,
   "byteOffset": 576,
   "byteLength": 192,
   "target": 34962
  },
  {
   "buffer": 0,
   "byteOffset": 768,
   "byteLength": 72,
   "target": 34963
  }
 ],
 "buffers": [
  {
   "byteLength": 840,
   "uri": "FrsLicht_Warm.bin"
  }
 ]
}