{
 "asset": {
  "version": "2.0",
  "generator": "FriesenBruegge rauch_bauen",
  "copyright": "devprops"
 },
 "scene": 0,
 "scenes": [
  {
   "nodes": [
    0
   ],
   "name": "Scene"
  }
 ],
 "nodes": [
  {
   "mesh": 0,
   "name": "frs_rauch_orange"
  }
 ],
 "meshes": [
  {
   "primitives": [
    {
     "attributes": {
      "POSITION": 0
     },
     "indices": 1,
     "material": 0,
     "mode": 4
    }
   ]
  }
 ],
 "materials": [
  {
   "name": "Invisible",
   "extensions": {
    "ASOBO_material_invisible": {}
   }
  }
 ],
 "accessors": [
  {
   "bufferView": 0,
   "componentType": 5126,
   "count": 8,
   "type": "VEC3",
   "min": [
    -1.0,
    -1.0,
    -1.0
   ],
   "max": [
    1.0,
    1.0,
    1.0
   ]
  },
  {
   "bufferView": 1,
   "componentType": 5123,
   "count": 36,
   "type": "SCALAR"
  }
 ],
 "bufferViews": [
  {
   "buffer": 0,
   "byteOffset": 0,
   "byteLength": 96,
   "target": 34962
  },
  {
   "buffer": 0,
   "byteOffset": 96,
   "byteLength": 72,
   "target": 34963
  }
 ],
 "buffers": [
  {
   "byteLength": 168,
   "uri": "data:application/octet-stream;base64,"
  }
 ]
}