{
 "asset": {
  "version": "2.0",
  "generator": "FriesenBruegge paket_bauen",
  "copyright": "devprops",
  "extensions": {
   "ASOBO_normal_map_convention": {
    "tangent_space_convention": "DirectX"
   }
  }
 },
 "scene": 0,
 "scenes": [
  {
   "nodes": [
    0
   ],
   "name": "Scene"
  }
 ],
 "nodes": [
  {
   "mesh": 0,
   "name": "frs_rauch_navy"
  }
 ],
 "meshes": [
  {
   "primitives": [
    {
     "attributes": {
      "POSITION": 0,
      "NORMAL": 1
     },
     "indices": 2,
     "material": 0,
     "mode": 4
    }
   ]
  }
 ],
 "materials": [
  {
   "name": "Invisible",
   "extensions": {
    "ASOBO_material_invisible": {}
   }
  }
 ],
 "accessors": [
  {
   "bufferView": 0,
   "componentType": 5126,
   "count": 24,
   "type": "VEC3",
   "min": [
    -6.0,
    0.0,
    -6.0
   ],
   "max": [
    6.0,
    90.0,
    6.0
   ]
  },
  {
   "bufferView": 1,
   "componentType": 5126,
   "count": 24,
   "type": "VEC3",
   "min": [
    -1.0,
    -1.0,
    -1.0
   ],
   "max": [
    1.0,
    1.0,
    1.0
   ]
  },
  {
   "bufferView": 2,
   "componentType": 5123,
   "count": 36,
   "type": "SCALAR"
  }
 ],
 "bufferViews": [
  {
   "buffer": 0,
   "byteOffset": 0,
   "byteLength": 288,
   "target": 34962
  },
  {
   "buffer": 0,
   "byteOffset": 288,
   "byteLength": 288,
   "target": 34962
  },
  {
   "buffer": 0,
   "byteOffset": 576,
   "byteLength": 72,
   "target": 34963
  }
 ],
 "buffers": [
  {
   "byteLength": 648,
   "uri": "FrsRauch_Navy.bin"
  }
 ]
}